<svg width="26" height="26" viewBox="0 0 26 26" fill="none" xmlns="http://www.w3.org/2000/svg">
<path d="M1.74973 14.2503H2.99973V23.0003C2.99973 24.379 4.12098 25.5003 5.49973 25.5003H20.4997C21.8785 25.5003 22.9997 24.379 22.9997 23.0003V14.2503H24.2497C24.4969 14.2502 24.7385 14.1769 24.9441 14.0395C25.1496 13.9022 25.3097 13.7069 25.4043 13.4786C25.4989 13.2502 25.5237 12.9989 25.4755 12.7565C25.4273 12.514 25.3082 12.2913 25.1335 12.1165L13.8835 0.866501C13.7675 0.750319 13.6297 0.658147 13.4781 0.595259C13.3265 0.53237 13.1639 0.5 12.9997 0.5C12.8356 0.5 12.673 0.53237 12.5214 0.595259C12.3697 0.658147 12.232 0.750319 12.116 0.866501L0.865984 12.1165C0.691222 12.2913 0.572214 12.514 0.524004 12.7565C0.475795 12.9989 0.500549 13.2502 0.595136 13.4786C0.689724 13.7069 0.849898 13.9022 1.05541 14.0395C1.26092 14.1769 1.50255 14.2502 1.74973 14.2503ZM12.9997 3.51775L20.4997 11.0178V16.7503L20.501 23.0003H5.49973V11.019L12.9997 3.51775Z" fill="#55A3EF"/>
<path d="M13 19.25C15.7575 19.25 18 17.0075 18 14.25C18 11.4925 15.7575 9.25 13 9.25C10.2425 9.25 8 11.4925 8 14.25C8 17.0075 10.2425 19.25 13 19.25ZM13 11.75C14.3788 11.75 15.5 12.8712 15.5 14.25C15.5 15.6287 14.3788 16.75 13 16.75C11.6213 16.75 10.5 15.6287 10.5 14.25C10.5 12.8712 11.6213 11.75 13 11.75Z" fill="#55A3EF"/>
</svg>
