<svg width="38" height="32" viewBox="0 0 38 32" fill="none" xmlns="http://www.w3.org/2000/svg">
<path d="M29.9288 0.904973C29.8916 0.960637 29.7803 1.05341 29.6133 1.23896C29.1866 1.5915 28.7783 2.01827 28.4258 2.46359C28.166 2.76046 27.8692 3.0759 28.1475 3.48411C28.4072 3.83665 28.7041 4.18919 29.0381 4.50463C29.2422 4.70873 29.4463 4.91284 29.6319 5.11694C30.1329 5.61792 29.7989 6.32301 29.1494 6.0818C28.8155 5.93336 28.5186 5.56226 28.2774 5.28393C27.294 4.18919 26.8115 3.50266 26.8115 3.13156C26.8115 2.87179 26.9971 2.48214 27.3867 1.98116C27.6836 1.61006 28.0361 1.20185 28.4629 0.812198C28.7412 0.552429 29.0196 0.25555 29.3535 0.070001C29.6504 -0.0784384 30.0772 0.107111 30.0772 0.515319C30.0772 0.645204 30.0215 0.793643 29.9288 0.904973Z" fill="#A4CDF4"/>
<path d="M30.499 10.0271C30.9258 9.54463 31.334 9.04365 31.6865 8.50555C31.4639 8.59833 31.2598 8.6911 31.0371 8.76532C30.9072 9.08076 30.7773 9.37764 30.6475 9.69307C30.5918 9.78584 30.5361 9.89717 30.499 10.0271Z" fill="#55A3EF"/>
<path d="M28.9642 10.2009C28.8715 9.84832 28.9642 9.58855 29.1127 9.31023C28.7601 9.38445 28.4076 9.44011 28.055 9.47722C28.5931 9.16179 29.0756 8.75358 29.5023 8.30826C30.1332 7.62173 30.6342 6.78676 30.9311 5.85901C30.7269 5.97034 30.5228 6.08167 30.3187 6.193C29.224 6.76821 28.0365 7.19497 26.7933 7.43618C25.6058 6.17445 23.8987 5.37659 22.0247 5.37659C18.425 5.37659 15.4934 8.30826 15.4934 11.9079C15.4934 12.4275 15.549 12.9099 15.6604 13.3923C10.2423 13.114 5.41804 10.5163 2.20804 6.5641C1.65139 7.52896 1.3174 8.64225 1.3174 9.84832C1.3174 12.112 2.4678 14.116 4.23052 15.2849C3.15434 15.2478 2.15237 14.9509 1.28029 14.4685C1.28029 14.4871 1.28029 14.5242 1.28029 14.5427C1.28029 17.6971 3.52543 20.3504 6.51278 20.9442C5.95613 21.0926 5.38093 21.1668 4.78717 21.1668C4.36041 21.1668 3.9522 21.1297 3.56254 21.0555C4.39752 23.6532 6.80966 25.5458 9.66711 25.5829C7.44052 27.3271 4.62017 28.3847 1.55861 28.3847C1.03908 28.3847 0.519538 28.3476 0 28.2919C2.89457 30.1474 6.32723 31.2236 10.0011 31.2236C22.0061 31.2236 28.5746 21.2782 28.5746 12.6501C28.5746 12.3718 28.5746 12.0935 28.556 11.7966C28.9086 11.5554 29.2426 11.2956 29.558 10.9987C29.2054 10.9431 28.89 10.6462 28.9642 10.2009Z" fill="#55A3EF"/>
<path d="M33.3474 0.444558C32.7792 0.181683 32.5141 0.632326 32.3247 1.08297C31.8513 2.26591 31.3779 3.4864 30.8098 4.8571C30.6014 5.30775 30.4121 5.77717 30.2227 6.24659C30.431 6.13392 30.6393 6.02126 30.8476 5.9086C30.5446 6.84744 30.0333 7.6924 29.3894 8.38714C29.2569 8.72512 28.9918 9.40109 28.9918 9.40109C28.4994 10.2836 28.8592 11.1286 29.4463 11.1098C29.4841 11.1098 29.522 11.1286 29.5599 11.1286C29.8629 11.1286 30.1469 10.9783 30.2795 10.6404C30.3553 10.4338 30.431 10.246 30.5068 10.0771C30.5636 9.94561 30.6014 9.83295 30.6583 9.73907C30.7908 9.43864 30.9234 9.11944 31.0559 8.80023C31.2453 8.36836 31.4658 7.97976 31.6363 7.51034C33.4164 3.00391 33.2337 3.7305 33.9344 1.57117C34.0291 1.08297 33.8019 0.651102 33.3474 0.444558Z" fill="#A4CDF4"/>
<path d="M35.458 0.0512429C35.8106 0.236792 36.0703 0.533671 36.3487 0.79344C36.794 1.20165 37.1465 1.5913 37.4248 1.9624C37.8145 2.46338 38 2.85304 38 3.11281C38 3.46535 37.5176 4.17044 36.5342 5.26518C36.293 5.5435 35.9961 5.9146 35.6621 6.06304C35.0127 6.30425 34.6787 5.59916 35.1797 5.09818C35.3652 4.89408 35.5879 4.68997 35.7735 4.48587C36.1074 4.17044 36.4043 3.83645 36.6641 3.46535C36.9424 3.05714 36.6455 2.74171 36.3858 2.44483C36.0332 1.99951 35.625 1.5913 35.1982 1.2202C35.0127 1.05321 34.9199 0.960434 34.8828 0.886214C34.79 0.774885 34.7344 0.626446 34.7344 0.459451C34.7344 0.0883528 35.1611 -0.0971965 35.458 0.0512429Z" fill="#A4CDF4"/>
</svg>
