<svg width="47" height="47" viewBox="0 0 47 47" fill="none" xmlns="http://www.w3.org/2000/svg">
<path d="M32.3125 17.625C32.3125 19.9622 31.384 22.2037 29.7314 23.8564C28.0787 25.509 25.8372 26.4375 23.5 26.4375C21.1628 26.4375 18.9213 25.509 17.2686 23.8564C15.616 22.2037 14.6875 19.9622 14.6875 17.625C14.6875 15.2878 15.616 13.0463 17.2686 11.3936C18.9213 9.74096 21.1628 8.8125 23.5 8.8125C25.8372 8.8125 28.0787 9.74096 29.7314 11.3936C31.384 13.0463 32.3125 15.2878 32.3125 17.625Z" fill="#D1D9DD"/>
<path fill-rule="evenodd" clip-rule="evenodd" d="M0 23.5C0 17.2674 2.47589 11.2901 6.88299 6.88299C11.2901 2.47589 17.2674 0 23.5 0C29.7326 0 35.7099 2.47589 40.117 6.88299C44.5241 11.2901 47 17.2674 47 23.5C47 29.7326 44.5241 35.7099 40.117 40.117C35.7099 44.5241 29.7326 47 23.5 47C17.2674 47 11.2901 44.5241 6.88299 40.117C2.47589 35.7099 0 29.7326 0 23.5ZM23.5 2.9375C19.6277 2.93771 15.8342 4.03132 12.5561 6.09246C9.27791 8.1536 6.64839 11.0985 4.97014 14.5882C3.2919 18.0779 2.63314 21.9706 3.06968 25.8181C3.50623 29.6657 5.02034 33.3119 7.43775 36.3369C9.52338 32.9764 14.1147 29.375 23.5 29.375C32.8853 29.375 37.4737 32.9734 39.5623 36.3369C41.9797 33.3119 43.4938 29.6657 43.9303 25.8181C44.3669 21.9706 43.7081 18.0779 42.0299 14.5882C40.3516 11.0985 37.7221 8.1536 34.4439 6.09246C31.1658 4.03132 27.3723 2.93771 23.5 2.9375Z" fill="#D1D9DD"/>
</svg>
