<svg width="27" height="31" viewBox="0 0 27 31" fill="none" xmlns="http://www.w3.org/2000/svg">
<path d="M7.84017 9.0014C7.91855 8.91119 8.01165 8.83961 8.11416 8.79077C8.21667 8.74193 8.32656 8.7168 8.43754 8.7168C8.54853 8.7168 8.65842 8.74193 8.76092 8.79077C8.86343 8.83961 8.95654 8.91119 9.03492 9.0014L13.5 14.13L17.9652 9.0014C18.0436 8.91133 18.1367 8.83988 18.2392 8.79114C18.3417 8.74239 18.4516 8.7173 18.5625 8.7173C18.6735 8.7173 18.7833 8.74239 18.8858 8.79114C18.9883 8.83988 19.0815 8.91133 19.1599 9.0014C19.2384 9.09147 19.3006 9.1984 19.3431 9.31608C19.3855 9.43377 19.4074 9.5599 19.4074 9.68728C19.4074 9.81466 19.3855 9.94079 19.3431 10.0585C19.3006 10.1762 19.2384 10.2831 19.1599 10.3732L14.6931 15.4998L19.1599 20.6264C19.2384 20.7165 19.3006 20.8234 19.3431 20.9411C19.3855 21.0588 19.4074 21.1849 19.4074 21.3123C19.4074 21.4397 19.3855 21.5658 19.3431 21.6835C19.3006 21.8012 19.2384 21.9081 19.1599 21.9982C19.0815 22.0882 18.9883 22.1597 18.8858 22.2084C18.7833 22.2572 18.6735 22.2823 18.5625 22.2823C18.4516 22.2823 18.3417 22.2572 18.2392 22.2084C18.1367 22.1597 18.0436 22.0882 17.9652 21.9982L13.5 16.8696L9.03492 21.9982C8.95647 22.0882 8.86334 22.1597 8.76084 22.2084C8.65834 22.2572 8.54849 22.2823 8.43754 22.2823C8.3266 22.2823 8.21674 22.2572 8.11425 22.2084C8.01175 22.1597 7.91862 22.0882 7.84017 21.9982C7.76172 21.9081 7.69949 21.8012 7.65703 21.6835C7.61458 21.5658 7.59273 21.4397 7.59273 21.3123C7.59273 21.1849 7.61458 21.0588 7.65703 20.9411C7.69949 20.8234 7.76172 20.7165 7.84017 20.6264L12.307 15.4998L7.84017 10.3732C7.76159 10.2832 7.69925 10.1763 7.65672 10.0586C7.61418 9.94087 7.59229 9.8147 7.59229 9.68728C7.59229 9.55985 7.61418 9.43368 7.65672 9.31599C7.69925 9.19829 7.76159 9.09139 7.84017 9.0014Z" fill="black"/>
</svg>
