<svg width="20" height="19" viewBox="0 0 20 19" fill="none" xmlns="http://www.w3.org/2000/svg">
<path d="M11.3105 8.04492C10.8143 8.04492 10.4297 8.42949 10.4297 8.9043C10.4297 9.3791 10.8143 9.76367 11.3105 9.76367C11.7639 9.76367 12.1484 9.3791 12.1484 8.9043C12.1484 8.42949 11.7639 8.04492 11.3105 8.04492ZM5.29492 8.04492C4.79863 8.04492 4.41406 8.42949 4.41406 8.9043C4.41406 9.3791 4.79863 9.76367 5.29492 9.76367C5.74824 9.76367 6.13281 9.3791 6.13281 8.9043C6.13281 8.42949 5.74824 8.04492 5.29492 8.04492Z" fill="#4AA1EB"/>
<path d="M18.2072 6.41209C17.1738 4.99412 15.7301 4.04666 14.1467 3.61912V3.62127C13.7793 3.21307 13.3647 2.83709 12.9006 2.50194C9.3836 -0.0547029 4.44649 0.72518 1.87911 4.24217C-0.189837 7.09959 -0.101751 10.9431 2.00801 13.6738L2.0252 16.5226C2.0252 16.5914 2.03594 16.6601 2.05743 16.7246C2.1713 17.0877 2.55801 17.2875 2.91895 17.1736L5.63887 16.3164C6.3586 16.5721 7.10196 16.7181 7.84102 16.759L7.83028 16.7676C9.74454 18.1619 12.2539 18.5808 14.5549 17.8203L17.2856 18.7097C17.3543 18.7312 17.4252 18.7441 17.4982 18.7441C17.8785 18.7441 18.1857 18.4369 18.1857 18.0566V15.1777C20.0785 12.6082 20.1279 9.05682 18.2072 6.41209ZM5.93965 14.791L5.68184 14.6836L3.55489 15.3496L3.5334 13.1152L3.36153 12.9219C1.54395 10.7047 1.42364 7.50994 3.1252 5.166C5.19629 2.32577 9.16661 1.69842 11.9982 3.74803C14.8385 5.81268 15.468 9.77655 13.4162 12.5996C11.6953 14.9607 8.61446 15.833 5.93965 14.791ZM16.7893 14.4258L16.6174 14.6406L16.6389 16.875L14.5334 16.166L14.2756 16.2734C13.0725 16.7203 11.7898 16.7568 10.6018 16.4238L10.5975 16.4217C12.1852 15.934 13.6246 14.9457 14.6623 13.5234C16.3037 11.2611 16.5701 8.41873 15.6162 5.9953L15.6291 6.00389C16.1232 6.35838 16.5766 6.80096 16.9611 7.33592C18.5209 9.47576 18.4328 12.389 16.7893 14.4258Z" fill="#4AA1EB"/>
<path d="M8.30273 8.04492C7.80645 8.04492 7.42188 8.42949 7.42188 8.9043C7.42188 9.3791 7.80645 9.76367 8.30273 9.76367C8.75605 9.76367 9.14062 9.3791 9.14062 8.9043C9.14062 8.42949 8.75605 8.04492 8.30273 8.04492Z" fill="#4AA1EB"/>
</svg>
