<svg width="50" height="50" viewBox="0 0 50 50" fill="none" xmlns="http://www.w3.org/2000/svg">
<path d="M32.75 18.0833C32.4898 17.8246 32.1378 17.6795 31.7708 17.6795C31.4039 17.6795 31.0519 17.8246 30.7917 18.0833C30.533 18.3436 30.3878 18.6956 30.3878 19.0625C30.3878 19.4294 30.533 19.7814 30.7917 20.0417L36.0556 25.3056H10.7778V1.38889C10.7778 1.02053 10.6314 0.667263 10.371 0.406796C10.1105 0.146329 9.75724 0 9.38889 0C9.02053 0 8.66726 0.146329 8.4068 0.406796C8.14633 0.667263 8 1.02053 8 1.38889V25.3056C8 26.0423 8.29266 26.7488 8.81359 27.2697C9.33453 27.7907 10.0411 28.0833 10.7778 28.0833H35.9861L30.7917 33.2917C30.533 33.5519 30.3878 33.9039 30.3878 34.2708C30.3878 34.6378 30.533 34.9898 30.7917 35.25C31.0504 35.5066 31.3995 35.6512 31.7639 35.6528C31.9467 35.6538 32.1279 35.6188 32.2971 35.5497C32.4663 35.4806 32.6202 35.3787 32.75 35.25L41.3333 26.6944L32.75 18.0833Z" fill="#A2ABAF"/>
</svg>
