<svg width="14" height="16" viewBox="0 0 14 16" fill="none" xmlns="http://www.w3.org/2000/svg">
<path d="M7.00099 1.77197e-09C7.73152 -2.50305e-05 8.43366 0.26517 8.96002 0.739919C9.48638 1.21467 9.79604 1.86205 9.82399 2.54619L9.82595 2.64748H13.3879C13.5449 2.64796 13.6959 2.70483 13.8096 2.80639C13.9233 2.90795 13.9911 3.04649 13.9992 3.19351C14.0072 3.34053 13.9549 3.48485 13.8529 3.59679C13.7509 3.70873 13.6069 3.77979 13.4507 3.79534L13.3879 3.79856H12.8519L12.0152 14.1905C11.9755 14.6826 11.739 15.1425 11.3529 15.478C10.9668 15.8136 10.4596 16 9.93306 16H4.06893C3.54236 16 3.03523 15.8136 2.64913 15.478C2.26302 15.1425 2.02646 14.6826 1.98681 14.1905L1.14964 3.79856H0.614122C0.462086 3.79863 0.315429 3.74584 0.20253 3.65041C0.0896307 3.55498 0.018516 3.42369 0.00294757 3.28196L0 3.22302C0 2.92512 0.241718 2.67971 0.551236 2.6507L0.614122 2.64748H4.17603C4.17603 1.94533 4.47366 1.27193 5.00344 0.77543C5.53323 0.27893 6.25177 1.77197e-09 7.00099 1.77197e-09ZM11.6202 3.79856H2.38181L3.2121 14.1039C3.22845 14.3065 3.3258 14.4957 3.48467 14.6339C3.64354 14.772 3.85221 14.8488 4.06893 14.8489H9.93306C10.1499 14.8489 10.3586 14.7722 10.5176 14.634C10.6766 14.4959 10.774 14.3065 10.7904 14.1039L11.6202 3.79856ZM8.59771 6.21583C8.91558 6.21583 9.17744 6.44236 9.20888 6.73243L9.21183 6.79137V11.8561C9.21257 12.0041 9.15244 12.1467 9.04394 12.2542C8.93544 12.3618 8.7869 12.426 8.62919 12.4336C8.47148 12.4412 8.31671 12.3915 8.19704 12.295C8.07736 12.1984 8.00197 12.0623 7.98654 11.915L7.98359 11.8561V6.79137C7.98359 6.47367 8.25871 6.21583 8.59771 6.21583ZM5.40427 6.21583C5.72214 6.21583 5.98401 6.44236 6.01545 6.73243L6.0184 6.79137V11.8561C6.01913 12.0041 5.959 12.1467 5.8505 12.2542C5.742 12.3618 5.59347 12.426 5.43576 12.4336C5.27805 12.4412 5.12328 12.3915 5.0036 12.295C4.88392 12.1984 4.80854 12.0623 4.7931 11.915L4.79015 11.8561V6.79137C4.79015 6.47367 5.06528 6.21583 5.40427 6.21583ZM7.00099 1.15108C6.59315 1.15105 6.20075 1.29729 5.9043 1.55979C5.60785 1.82229 5.42982 2.18115 5.40673 2.56276L5.40427 2.64748H8.59771C8.59771 2.25061 8.42948 1.87 8.13004 1.58937C7.8306 1.30874 7.42447 1.15108 7.00099 1.15108Z" fill="#D1D9DD"/>
</svg>
