<svg width="26" height="26" viewBox="0 0 26 26" fill="none" xmlns="http://www.w3.org/2000/svg">
<path d="M1.74998 14.2503H2.99998V23.0003C2.99998 24.379 4.12123 25.5003 5.49998 25.5003H20.5C21.8787 25.5003 23 24.379 23 23.0003V14.2503H24.25C24.4972 14.2502 24.7388 14.1769 24.9443 14.0395C25.1498 13.9022 25.31 13.7069 25.4046 13.4786C25.4992 13.2502 25.5239 12.9989 25.4757 12.7565C25.4275 12.514 25.3085 12.2913 25.1337 12.1165L13.8837 0.866501C13.7677 0.750319 13.63 0.658147 13.4783 0.595259C13.3267 0.53237 13.1641 0.5 13 0.5C12.8358 0.5 12.6733 0.53237 12.5216 0.595259C12.37 0.658147 12.2322 0.750319 12.1162 0.866501L0.866228 12.1165C0.691466 12.2913 0.572458 12.514 0.524248 12.7565C0.476039 12.9989 0.500793 13.2502 0.59538 13.4786C0.689968 13.7069 0.850142 13.9022 1.05565 14.0395C1.26117 14.1769 1.50279 14.2502 1.74998 14.2503ZM13 3.51775L20.5 11.0178V16.7503L20.5012 23.0003H5.49998V11.019L13 3.51775Z" fill="black"/>
<path d="M13 19.25C15.7575 19.25 18 17.0075 18 14.25C18 11.4925 15.7575 9.25 13 9.25C10.2425 9.25 8 11.4925 8 14.25C8 17.0075 10.2425 19.25 13 19.25ZM13 11.75C14.3788 11.75 15.5 12.8712 15.5 14.25C15.5 15.6287 14.3788 16.75 13 16.75C11.6213 16.75 10.5 15.6287 10.5 14.25C10.5 12.8712 11.6213 11.75 13 11.75Z" fill="black"/>
</svg>
