<svg width="21" height="19" viewBox="0 0 21 19" fill="none" xmlns="http://www.w3.org/2000/svg">
<mask id="path-1-inside-1" fill="white">
<path d="M19.6354 3.89367C19.3232 3.13173 18.873 2.44126 18.3101 1.86092C17.7467 1.27885 17.0825 0.816287 16.3535 0.498386C15.5977 0.167432 14.7869 -0.0019684 13.9684 1.7256e-05C12.8201 1.7256e-05 11.6997 0.331444 10.7261 0.957473C10.4932 1.10723 10.2719 1.27172 10.0623 1.45093C9.85266 1.27172 9.63138 1.10723 9.39846 0.957473C8.42484 0.331444 7.30448 1.7256e-05 6.15616 1.7256e-05C5.32929 1.7256e-05 4.52803 0.166958 3.77103 0.498386C3.03965 0.817538 2.38048 1.27663 1.81447 1.86092C1.25079 2.4406 0.800506 3.13124 0.489139 3.89367C0.165376 4.68664 0 5.52871 0 6.39533C0 7.21285 0.158388 8.06474 0.472834 8.93137C0.736038 9.65559 1.11337 10.4068 1.59552 11.1654C2.35951 12.3659 3.41 13.618 4.71437 14.8872C6.8759 16.9912 9.01646 18.4446 9.1073 18.5035L9.65933 18.8766C9.9039 19.0411 10.2183 19.0411 10.4629 18.8766L11.0149 18.5035C11.1058 18.4421 13.244 16.9912 15.4079 14.8872C16.7122 13.618 17.7627 12.3659 18.5267 11.1654C19.0089 10.4068 19.3885 9.65559 19.6494 8.93137C19.9639 8.06474 20.1222 7.21285 20.1222 6.39533C20.1246 5.52871 19.9592 4.68664 19.6354 3.89367ZM10.0623 16.9347C10.0623 16.9347 1.77022 11.3348 1.77022 6.39533C1.77022 3.89367 3.73376 1.86583 6.15616 1.86583C7.85883 1.86583 9.33557 2.86748 10.0623 4.33067C10.789 2.86748 12.2657 1.86583 13.9684 1.86583C16.3908 1.86583 18.3544 3.89367 18.3544 6.39533C18.3544 11.3348 10.0623 16.9347 10.0623 16.9347Z"/>
</mask>
<path d="M19.6354 3.89367C19.3232 3.13173 18.873 2.44126 18.3101 1.86092C17.7467 1.27885 17.0825 0.816287 16.3535 0.498386C15.5977 0.167432 14.7869 -0.0019684 13.9684 1.7256e-05C12.8201 1.7256e-05 11.6997 0.331444 10.7261 0.957473C10.4932 1.10723 10.2719 1.27172 10.0623 1.45093C9.85266 1.27172 9.63138 1.10723 9.39846 0.957473C8.42484 0.331444 7.30448 1.7256e-05 6.15616 1.7256e-05C5.32929 1.7256e-05 4.52803 0.166958 3.77103 0.498386C3.03965 0.817538 2.38048 1.27663 1.81447 1.86092C1.25079 2.4406 0.800506 3.13124 0.489139 3.89367C0.165376 4.68664 0 5.52871 0 6.39533C0 7.21285 0.158388 8.06474 0.472834 8.93137C0.736038 9.65559 1.11337 10.4068 1.59552 11.1654C2.35951 12.3659 3.41 13.618 4.71437 14.8872C6.8759 16.9912 9.01646 18.4446 9.1073 18.5035L9.65933 18.8766C9.9039 19.0411 10.2183 19.0411 10.4629 18.8766L11.0149 18.5035C11.1058 18.4421 13.244 16.9912 15.4079 14.8872C16.7122 13.618 17.7627 12.3659 18.5267 11.1654C19.0089 10.4068 19.3885 9.65559 19.6494 8.93137C19.9639 8.06474 20.1222 7.21285 20.1222 6.39533C20.1246 5.52871 19.9592 4.68664 19.6354 3.89367ZM10.0623 16.9347C10.0623 16.9347 1.77022 11.3348 1.77022 6.39533C1.77022 3.89367 3.73376 1.86583 6.15616 1.86583C7.85883 1.86583 9.33557 2.86748 10.0623 4.33067C10.789 2.86748 12.2657 1.86583 13.9684 1.86583C16.3908 1.86583 18.3544 3.89367 18.3544 6.39533C18.3544 11.3348 10.0623 16.9347 10.0623 16.9347Z" fill="#FF0000" stroke="#FF0000" stroke-width="6" mask="url(#path-1-inside-1)"/>
<mask id="path-2-outside-2" maskUnits="userSpaceOnUse" x="1" y="1" width="19" height="17" fill="black">
<rect fill="white" x="1" y="1" width="19" height="17"/>
<path d="M14.1989 2C12.4962 2 11.0193 2.94569 10.2926 4.32714C9.56581 2.94569 8.08899 2 6.38621 2C3.96366 2 2 3.91456 2 6.27647C2 10.94 10.2926 16.2271 10.2926 16.2271C10.2926 16.2271 18.5852 10.94 18.5852 6.27647C18.5852 3.91456 16.6215 2 14.1989 2Z"/>
</mask>
<path d="M14.1989 2C12.4962 2 11.0193 2.94569 10.2926 4.32714C9.56581 2.94569 8.08899 2 6.38621 2C3.96366 2 2 3.91456 2 6.27647C2 10.94 10.2926 16.2271 10.2926 16.2271C10.2926 16.2271 18.5852 10.94 18.5852 6.27647C18.5852 3.91456 16.6215 2 14.1989 2Z" fill="#FF0000"/>
<path d="M14.1989 2C12.4962 2 11.0193 2.94569 10.2926 4.32714C9.56581 2.94569 8.08899 2 6.38621 2C3.96366 2 2 3.91456 2 6.27647C2 10.94 10.2926 16.2271 10.2926 16.2271C10.2926 16.2271 18.5852 10.94 18.5852 6.27647C18.5852 3.91456 16.6215 2 14.1989 2Z" stroke="#FF0000" stroke-width="2" mask="url(#path-2-outside-2)"/>
</svg>
