<svg width="50" height="41" viewBox="0 0 50 41" fill="none" xmlns="http://www.w3.org/2000/svg">
<path d="M39.3003 1.18848C39.2516 1.26157 39.1054 1.3834 38.8861 1.62705C38.3257 2.08998 37.7897 2.65037 37.3268 3.23512C36.9857 3.62496 36.5958 4.03916 36.9613 4.57519C37.3024 5.03812 37.6922 5.50105 38.1308 5.91525C38.3988 6.18326 38.6668 6.45128 38.9105 6.71929C39.5683 7.37714 39.1298 8.303 38.277 7.98626C37.8384 7.79134 37.4486 7.30404 37.1318 6.93857C35.8405 5.50105 35.207 4.59955 35.207 4.11226C35.207 3.77115 35.4507 3.25949 35.9623 2.60164C36.3522 2.11434 36.8151 1.57832 37.3755 1.06666C37.741 0.725549 38.1064 0.335712 38.545 0.0920641C38.9348 -0.102854 39.4952 0.140794 39.4952 0.676819C39.4952 0.847373 39.4221 1.04229 39.3003 1.18848Z" fill="#A4CDF4"/>
<path d="M40.0488 13.1666C40.6092 12.5331 41.1452 11.8753 41.6082 11.1687C41.3158 11.2905 41.0478 11.4123 40.7554 11.5098C40.5849 11.924 40.4143 12.3138 40.2437 12.728C40.1707 12.8499 40.0976 12.9961 40.0488 13.1666Z" fill="#55A3EF"/>
<path d="M38.0334 13.3949C37.9116 12.932 38.0334 12.5909 38.2284 12.2254C37.7654 12.3229 37.3025 12.3959 36.8396 12.4447C37.5462 12.0305 38.1796 11.4945 38.74 10.9097C39.5684 10.0082 40.2263 8.91178 40.6161 7.69354C40.3481 7.83973 40.0801 7.98592 39.8121 8.13211C38.3746 8.88742 36.8152 9.44781 35.1828 9.76455C33.6234 8.10774 31.3819 7.06006 28.921 7.06006C24.1942 7.06006 20.3446 10.9097 20.3446 15.6365C20.3446 16.3187 20.4177 16.9522 20.5639 17.5856C13.4494 17.2202 7.11452 13.8091 2.89941 8.61941C2.16847 9.88637 1.7299 11.3483 1.7299 12.932C1.7299 15.9045 3.24052 18.5359 5.55517 20.0709C4.14201 20.0221 2.82632 19.6323 1.68117 18.9988C1.68117 19.0232 1.68117 19.0719 1.68117 19.0963C1.68117 23.2383 4.62931 26.7224 8.55204 27.5021C7.8211 27.697 7.06579 27.7945 6.28612 27.7945C5.72573 27.7945 5.1897 27.7458 4.67804 27.6483C5.77446 31.0594 8.94188 33.5446 12.6941 33.5933C9.77028 35.8836 6.06683 37.2724 2.04664 37.2724C1.36443 37.2724 0.682214 37.2237 0 37.1506C3.80091 39.5871 8.3084 41.0002 13.1326 41.0002C28.8966 41.0002 37.5218 27.9407 37.5218 16.6111C37.5218 16.2456 37.5218 15.8801 37.4974 15.4903C37.9604 15.1735 38.3989 14.8324 38.8131 14.4426C38.3502 14.3695 37.936 13.9797 38.0334 13.3949Z" fill="#55A3EF"/>
<path d="M43.7891 0.583683C43.043 0.238497 42.6949 0.830244 42.4462 1.42199C41.8246 2.97533 41.2029 4.57798 40.4569 6.37787C40.1833 6.96962 39.9346 7.58603 39.686 8.20243C39.9595 8.05449 40.2331 7.90656 40.5066 7.75862C40.1087 8.99143 39.4373 10.101 38.5918 11.0132C38.4178 11.457 38.0696 12.3447 38.0696 12.3447C37.4231 13.5035 37.8955 14.613 38.6664 14.5884C38.7162 14.5884 38.7659 14.613 38.8156 14.613C39.2135 14.613 39.5865 14.4158 39.7606 13.972C39.86 13.7007 39.9595 13.4542 40.059 13.2323C40.1336 13.0597 40.1833 12.9118 40.2579 12.7885C40.432 12.394 40.6061 11.9748 40.7801 11.5557C41.0288 10.9886 41.3184 10.4783 41.5422 9.86189C43.8797 3.94442 43.6398 4.89851 44.5599 2.06305C44.6843 1.42199 44.3859 0.8549 43.7891 0.583683Z" fill="#A4CDF4"/>
<path d="M46.5606 0.067288C47.0235 0.310936 47.3646 0.700773 47.7301 1.04188C48.3148 1.57791 48.7778 2.08957 49.1432 2.57686C49.6549 3.23471 49.8986 3.74637 49.8986 4.08748C49.8986 4.55041 49.2651 5.47627 47.9737 6.9138C47.657 7.27927 47.2672 7.76657 46.8286 7.96148C45.9758 8.27823 45.5373 7.35236 46.1951 6.69451C46.4388 6.4265 46.7311 6.15849 46.9748 5.89048C47.4133 5.47627 47.8032 5.03771 48.1443 4.55041C48.5098 4.01439 48.1199 3.60018 47.7788 3.21035C47.3159 2.62559 46.7799 2.08957 46.2195 1.60227C45.9758 1.38299 45.854 1.26116 45.8053 1.1637C45.6834 1.01752 45.6104 0.822597 45.6104 0.603314C45.6104 0.116018 46.1707 -0.12763 46.5606 0.067288Z" fill="#A4CDF4"/>
</svg>
