
<svg width="50" height="41" viewBox="0 0 50 41" fill="none" xmlns="http://www.w3.org/2000/svg">
<path d="M39.3003 1.18848C39.2516 1.26157 39.1054 1.3834 38.8861 1.62705C38.3257 2.08998 37.7897 2.65037 37.3268 3.23512C36.9857 3.62496 36.5958 4.03916 36.9613 4.57519C37.3024 5.03812 37.6922 5.50105 38.1308 5.91525C38.3988 6.18326 38.6668 6.45128 38.9105 6.71929C39.5683 7.37714 39.1298 8.303 38.277 7.98626C37.8384 7.79134 37.4486 7.30404 37.1318 6.93857C35.8405 5.50105 35.207 4.59955 35.207 4.11226C35.207 3.77115 35.4507 3.25949 35.9623 2.60164C36.3522 2.11434 36.8151 1.57832 37.3755 1.06666C37.741 0.725549 38.1064 0.335712 38.545 0.0920641C38.9348 -0.102854 39.4952 0.140794 39.4952 0.676819C39.4952 0.847373 39.4221 1.04229 39.3003 1.18848Z" fill="#A4CDF4"/>
<path d="M40.0488 13.1669C40.6092 12.5334 41.1452 11.8755 41.6082 11.1689C41.3158 11.2908 41.0478 11.4126 40.7554 11.5101C40.5849 11.9243 40.4143 12.3141 40.2437 12.7283C40.1707 12.8501 40.0976 12.9963 40.0488 13.1669Z" fill="#55A3EF"/>
<path d="M38.0334 13.3944C37.9116 12.9315 38.0334 12.5904 38.2284 12.2249C37.7654 12.3224 37.3025 12.3955 36.8396 12.4442C37.5462 12.03 38.1796 11.494 38.74 10.9092C39.5684 10.0077 40.2263 8.91129 40.6161 7.69306C40.3481 7.83924 40.0801 7.98543 39.8121 8.13162C38.3746 8.88693 36.8152 9.44732 35.1828 9.76406C33.6234 8.10726 31.3819 7.05957 28.921 7.05957C24.1942 7.05957 20.3446 10.9092 20.3446 15.636C20.3446 16.3182 20.4177 16.9517 20.5639 17.5852C13.4494 17.2197 7.11452 13.8086 2.89941 8.61892C2.16847 9.88589 1.7299 11.3478 1.7299 12.9315C1.7299 15.904 3.24052 18.5354 5.55517 20.0704C4.14202 20.0216 2.82632 19.6318 1.68117 18.9983C1.68117 19.0227 1.68117 19.0714 1.68117 19.0958C1.68117 23.2378 4.62931 26.722 8.55204 27.5016C7.8211 27.6966 7.06579 27.794 6.28612 27.794C5.72573 27.794 5.1897 27.7453 4.67804 27.6478C5.77446 31.0589 8.94188 33.5441 12.6941 33.5928C9.77028 35.8831 6.06683 37.2719 2.04664 37.2719C1.36443 37.2719 0.682214 37.2232 0 37.1501C3.80091 39.5866 8.3084 40.9997 13.1326 40.9997C28.8966 40.9997 37.5218 27.9402 37.5218 16.6106C37.5218 16.2451 37.5218 15.8796 37.4974 15.4898C37.9604 15.173 38.3989 14.8319 38.8131 14.4421C38.3502 14.369 37.936 13.9792 38.0334 13.3944Z" fill="#55A3EF"/>
<path d="M43.7891 0.583683C43.043 0.238497 42.6949 0.830244 42.4462 1.42199C41.8246 2.97533 41.2029 4.57798 40.4569 6.37787C40.1833 6.96962 39.9346 7.58603 39.686 8.20243C39.9595 8.05449 40.2331 7.90656 40.5066 7.75862C40.1087 8.99143 39.4373 10.101 38.5918 11.0132C38.4178 11.457 38.0696 12.3447 38.0696 12.3447C37.4231 13.5035 37.8955 14.613 38.6664 14.5884C38.7162 14.5884 38.7659 14.613 38.8156 14.613C39.2135 14.613 39.5865 14.4158 39.7606 13.972C39.86 13.7007 39.9595 13.4542 40.059 13.2323C40.1336 13.0597 40.1833 12.9118 40.2579 12.7885C40.432 12.394 40.6061 11.9748 40.7801 11.5557C41.0288 10.9886 41.3184 10.4783 41.5422 9.86189C43.8797 3.94442 43.6398 4.89851 44.5599 2.06305C44.6843 1.42199 44.3859 0.8549 43.7891 0.583683Z" fill="#A4CDF4"/>
<path d="M46.5606 0.067288C47.0235 0.310936 47.3646 0.700773 47.7301 1.04188C48.3148 1.57791 48.7778 2.08957 49.1432 2.57686C49.6549 3.23471 49.8986 3.74637 49.8986 4.08748C49.8986 4.55041 49.2651 5.47627 47.9737 6.9138C47.657 7.27927 47.2672 7.76657 46.8286 7.96148C45.9758 8.27823 45.5373 7.35236 46.1951 6.69451C46.4388 6.4265 46.7311 6.15849 46.9748 5.89048C47.4133 5.47627 47.8032 5.03771 48.1443 4.55041C48.5098 4.01439 48.1199 3.60018 47.7788 3.21035C47.3159 2.62559 46.7799 2.08957 46.2195 1.60227C45.9758 1.38299 45.854 1.26116 45.8053 1.1637C45.6834 1.01752 45.6104 0.822597 45.6104 0.603314C45.6104 0.116018 46.1707 -0.12763 46.5606 0.067288Z" fill="#A4CDF4"/>
</svg>
